<svg version="1.1" id="Layer_1" xmlns="http://www.w3.org/2000/svg" xmlns:xlink="http://www.w3.org/1999/xlink" x="0px" y="0px"
	 width="100%" viewBox="0 0 180 142" enable-background="new 0 0 180 142" xml:space="preserve">
<path fill="none" opacity="1.000000" stroke="none" 
	d="
M104.000000,143.000000 
	C69.333336,143.000000 35.166676,143.000000 1.000009,143.000000 
	C1.000006,95.666679 1.000006,48.333351 1.000003,1.000022 
	C60.999985,1.000015 120.999969,1.000015 180.999969,1.000007 
	C180.999969,48.333313 180.999969,95.666626 180.999985,142.999969 
	C155.500000,143.000000 130.000000,143.000000 104.000000,143.000000 
M98.942177,139.946335 
	C116.623619,133.981354 134.332199,128.095230 151.977081,122.024025 
	C163.986084,117.891998 176.575287,103.344620 176.105270,88.741241 
	C175.628464,73.926666 175.641174,59.073364 176.112854,44.258465 
	C176.494339,32.277180 172.516006,22.787462 163.510162,14.873850 
	C153.322968,5.922154 141.581589,2.812268 128.786133,5.843696 
	C117.766464,8.454410 107.165878,12.806647 96.316368,16.184513 
	C93.969376,16.915220 91.145126,17.515444 88.895142,16.893511 
	C82.022781,14.993871 75.266174,12.623426 68.571007,10.148136 
	C60.390701,7.123770 52.219925,4.853653 43.298767,4.884385 
	C24.500952,4.949139 5.501976,22.575308 5.938819,42.255264 
	C6.253055,56.411697 6.676746,70.621490 5.826511,84.733673 
	C4.793403,101.881165 17.109552,118.057327 33.650154,123.301201 
	C42.309944,126.046631 50.953915,128.864944 59.497829,131.947464 
	C71.982826,136.451843 84.301041,141.558807 98.942177,139.946335 
z"/>
<path fill="#2727FF" opacity="1.000000" stroke="none" 
	d="
M98.489532,139.968781 
	C84.301041,141.558807 71.982826,136.451843 59.497829,131.947464 
	C50.953915,128.864944 42.309944,126.046631 33.650154,123.301201 
	C17.109552,118.057327 4.793403,101.881165 5.826511,84.733673 
	C6.676746,70.621490 6.253055,56.411697 5.938819,42.255264 
	C5.501976,22.575308 24.500952,4.949139 43.298767,4.884385 
	C52.219925,4.853653 60.390701,7.123770 68.571007,10.148136 
	C75.266174,12.623426 82.022781,14.993871 88.895142,16.893511 
	C91.145126,17.515444 93.969376,16.915220 96.316368,16.184513 
	C107.165878,12.806647 117.766464,8.454410 128.786133,5.843696 
	C141.581589,2.812268 153.322968,5.922154 163.510162,14.873850 
	C172.516006,22.787462 176.494339,32.277180 176.112854,44.258465 
	C175.641174,59.073364 175.628464,73.926666 176.105270,88.741241 
	C176.575287,103.344620 163.986084,117.891998 151.977081,122.024025 
	C134.332199,128.095230 116.623619,133.981354 98.489532,139.968781 
M76.999626,64.305664 
	C76.666862,72.239342 76.119469,80.171677 76.069771,88.107124 
	C76.030594,94.363815 80.795792,97.152962 86.242439,94.305092 
	C96.170341,89.114128 106.086433,83.895897 115.904427,78.501541 
	C120.421814,76.019524 120.161232,70.024536 115.472458,67.182968 
	C105.748192,61.289711 95.967674,55.487869 86.158508,49.736752 
	C82.000671,47.299007 77.214073,50.018097 77.021965,54.857220 
	C76.909668,57.685890 77.000504,60.522629 76.999626,64.305664 
z"/>
<path fill="none" opacity="1.000000" stroke="none" 
	d="
M76.999786,63.830700 
	C77.000504,60.522629 76.909668,57.685890 77.021965,54.857220 
	C77.214073,50.018097 82.000671,47.299007 86.158508,49.736752 
	C95.967674,55.487869 105.748192,61.289711 115.472458,67.182968 
	C120.161232,70.024536 120.421814,76.019524 115.904427,78.501541 
	C106.086433,83.895897 96.170341,89.114128 86.242439,94.305092 
	C80.795792,97.152962 76.030594,94.363815 76.069771,88.107124 
	C76.119469,80.171677 76.666862,72.239342 76.999786,63.830700 
z"/>
</svg>