<svg version="1.1" id="Layer_1" xmlns="http://www.w3.org/2000/svg" xmlns:xlink="http://www.w3.org/1999/xlink" x="0px" y="0px"
	 width="100%" viewBox="0 0 160 133" enable-background="new 0 0 160 133" xml:space="preserve">
<path fill="none" opacity="1.000000" stroke="none" 
	d="
M103.000000,134.000000 
	C68.666672,134.000000 34.833340,134.000000 1.000009,134.000000 
	C1.000006,89.666679 1.000006,45.333351 1.000003,1.000021 
	C54.333317,1.000014 107.666634,1.000014 160.999969,1.000007 
	C160.999969,45.333313 160.999969,89.666626 160.999985,133.999969 
	C141.833328,134.000000 122.666664,134.000000 103.000000,134.000000 
M121.942192,6.605285 
	C114.589211,9.658702 107.236221,12.712119 99.655716,15.860018 
	C95.284615,8.944113 87.865364,9.626419 81.669762,9.458669 
	C75.289787,9.285926 67.976479,8.835200 62.744106,14.639482 
	C62.153782,15.294331 60.015995,15.075927 58.856045,14.611897 
	C50.575325,11.299257 42.362179,7.817715 32.884640,3.872505 
	C35.180332,9.581274 36.572563,14.378954 38.944481,18.630013 
	C42.541447,25.076675 41.823765,30.967833 39.118896,37.523098 
	C32.286510,54.081421 32.497917,54.166122 38.410095,71.000793 
	C39.015884,72.725754 39.442089,74.520668 40.139282,76.205467 
	C43.497856,84.321579 46.288834,92.759697 50.507694,100.406929 
	C54.334702,107.343880 60.120083,113.173065 64.336861,119.930695 
	C67.939621,125.704338 73.612183,128.302795 78.990814,131.505615 
	C79.738365,131.950760 81.131996,132.196259 81.768684,131.799500 
	C86.112503,129.092514 91.362221,127.012863 94.413795,123.203896 
	C106.584778,108.012146 117.922050,92.198524 122.555214,72.717072 
	C123.282951,69.657082 124.291763,66.613182 125.584953,63.748913 
	C128.341736,57.642956 128.551178,51.788166 125.545265,45.621807 
	C123.517494,41.462017 122.546997,36.794933 120.622375,32.574184 
	C119.099190,29.233791 119.321190,26.402857 120.784096,23.135601 
	C123.442238,17.198902 125.683693,11.075629 128.473145,4.093875 
	C125.688782,5.124904 124.144440,5.696760 121.942192,6.605285 
z"/>
<path fill="#673AB4" opacity="1.000000" stroke="none" 
	d="
M122.271149,6.436950 
	C124.144440,5.696760 125.688782,5.124904 128.473145,4.093875 
	C125.683693,11.075629 123.442238,17.198902 120.784096,23.135601 
	C119.321190,26.402857 119.099190,29.233791 120.622375,32.574184 
	C122.546997,36.794933 123.517494,41.462017 125.545265,45.621807 
	C128.551178,51.788166 128.341736,57.642956 125.584953,63.748913 
	C124.291763,66.613182 123.282951,69.657082 122.555214,72.717072 
	C117.922050,92.198524 106.584778,108.012146 94.413795,123.203896 
	C91.362221,127.012863 86.112503,129.092514 81.768684,131.799500 
	C81.131996,132.196259 79.738365,131.950760 78.990814,131.505615 
	C73.612183,128.302795 67.939621,125.704338 64.336861,119.930695 
	C60.120083,113.173065 54.334702,107.343880 50.507694,100.406929 
	C46.288834,92.759697 43.497856,84.321579 40.139282,76.205467 
	C39.442089,74.520668 39.015884,72.725754 38.410095,71.000793 
	C32.497917,54.166122 32.286510,54.081421 39.118896,37.523098 
	C41.823765,30.967833 42.541447,25.076675 38.944481,18.630013 
	C36.572563,14.378954 35.180332,9.581274 32.884640,3.872505 
	C42.362179,7.817715 50.575325,11.299257 58.856045,14.611897 
	C60.015995,15.075927 62.153782,15.294331 62.744106,14.639482 
	C67.976479,8.835200 75.289787,9.285926 81.669762,9.458669 
	C87.865364,9.626419 95.284615,8.944113 99.655716,15.860018 
	C107.236221,12.712119 114.589211,9.658702 122.271149,6.436950 
M65.588219,42.247528 
	C60.852463,42.950005 56.116703,43.652481 50.863182,44.431759 
	C50.863182,49.627628 51.083645,54.762779 50.808876,59.871296 
	C50.443344,66.667351 51.485512,73.030296 54.576294,79.174377 
	C57.991287,85.962967 61.100063,92.913429 64.119286,99.889877 
	C65.564697,103.229759 66.398582,106.828751 67.681999,110.245567 
	C69.725235,115.685249 75.256378,119.857071 80.206841,119.875641 
	C86.627487,119.899719 91.708138,116.040619 94.175797,109.396469 
	C97.627106,100.103828 99.952606,90.494469 105.581902,81.918724 
	C113.141647,70.402092 110.896904,57.142967 110.492584,44.637772 
	C100.391685,42.315224 90.992844,40.575745 82.692619,48.104515 
	C81.825470,48.891071 79.053673,48.100838 77.425652,47.420155 
	C73.665749,45.848137 70.065620,43.893955 65.588219,42.247528 
z"/>
<path fill="none" opacity="1.000000" stroke="none" 
	d="
M65.994453,42.171158 
	C70.065620,43.893955 73.665749,45.848137 77.425652,47.420155 
	C79.053673,48.100838 81.825470,48.891071 82.692619,48.104515 
	C90.992844,40.575745 100.391685,42.315224 110.492584,44.637772 
	C110.896904,57.142967 113.141647,70.402092 105.581902,81.918724 
	C99.952606,90.494469 97.627106,100.103828 94.175797,109.396469 
	C91.708138,116.040619 86.627487,119.899719 80.206841,119.875641 
	C75.256378,119.857071 69.725235,115.685249 67.681999,110.245567 
	C66.398582,106.828751 65.564697,103.229759 64.119286,99.889877 
	C61.100063,92.913429 57.991287,85.962967 54.576294,79.174377 
	C51.485512,73.030296 50.443344,66.667351 50.808876,59.871296 
	C51.083645,54.762779 50.863182,49.627628 50.863182,44.431759 
	C56.116703,43.652481 60.852463,42.950005 65.994453,42.171158 
M86.836182,78.920593 
	C86.392006,77.618484 85.947830,76.316376 85.814941,75.926796 
	C81.936081,75.926796 78.861259,75.926796 75.329681,75.926796 
	C74.261856,81.449051 73.485580,87.709846 71.764709,93.699226 
	C70.202522,99.136314 71.233925,104.035789 73.870110,108.440147 
	C75.357750,110.925606 78.587646,114.003670 80.909302,113.905174 
	C83.343407,113.801910 86.317436,110.625183 87.832420,108.067307 
	C90.665771,103.283501 91.244621,97.980766 89.429733,92.374565 
	C88.116264,88.317253 87.725410,83.961258 86.836182,78.920593 
M67.105209,71.394585 
	C70.142113,70.629227 70.406654,68.895721 70.103432,65.852821 
	C69.228363,57.071396 61.985420,57.268211 56.354439,54.797855 
	C55.315331,59.104099 57.947006,66.302536 61.217304,66.675827 
	C64.693115,67.072563 65.103935,69.490166 67.105209,71.394585 
M96.129318,68.660652 
	C102.005035,66.128845 106.273659,62.482063 105.750832,54.519726 
	C103.116547,55.482906 101.055466,56.551277 98.869400,56.975407 
	C92.876732,58.138050 91.803833,62.841995 91.256714,67.625992 
	C91.128883,68.743744 93.176262,70.110268 94.222839,71.362335 
	C94.806679,70.709351 95.390526,70.056366 96.129318,68.660652 
z"/>
<path fill="#673AB3" opacity="1.000000" stroke="none" 
	d="
M86.879646,79.329529 
	C87.725410,83.961258 88.116264,88.317253 89.429733,92.374565 
	C91.244621,97.980766 90.665771,103.283501 87.832420,108.067307 
	C86.317436,110.625183 83.343407,113.801910 80.909302,113.905174 
	C78.587646,114.003670 75.357750,110.925606 73.870110,108.440147 
	C71.233925,104.035789 70.202522,99.136314 71.764709,93.699226 
	C73.485580,87.709846 74.261856,81.449051 75.329681,75.926796 
	C78.861259,75.926796 81.936081,75.926796 85.814941,75.926796 
	C85.947830,76.316376 86.392006,77.618484 86.879646,79.329529 
z"/>
<path fill="#6238AC" opacity="1.000000" stroke="none" 
	d="
M66.763771,71.453400 
	C65.103935,69.490166 64.693115,67.072563 61.217304,66.675827 
	C57.947006,66.302536 55.315331,59.104099 56.354439,54.797855 
	C61.985420,57.268211 69.228363,57.071396 70.103432,65.852821 
	C70.406654,68.895721 70.142113,70.629227 66.763771,71.453400 
z"/>
<path fill="#6339AE" opacity="1.000000" stroke="none" 
	d="
M96.051849,69.032013 
	C95.390526,70.056366 94.806679,70.709351 94.222839,71.362335 
	C93.176262,70.110268 91.128883,68.743744 91.256714,67.625992 
	C91.803833,62.841995 92.876732,58.138050 98.869400,56.975407 
	C101.055466,56.551277 103.116547,55.482906 105.750832,54.519726 
	C106.273659,62.482063 102.005035,66.128845 96.051849,69.032013 
z"/>
</svg>